<?xml version="1.0" encoding="utf-8"?>
<svg viewBox="0 0 1080 261" width="130" height="31" xmlns="http://www.w3.org/2000/svg">
  <g transform="matrix(0.10000000149011612, 0, 0, -0.10000000149011612, 75.42239379882807, 695.9147338867188)" fill="#000000" stroke="none">
    <path d="M 397.636 6927.929 C 201.462 6897.984 -52.764 6790.184 -216.909 6667.411 C -521.179 6440.831 -706.344 6119.425 -742.376 5758.094 C -778.408 5401.754 -656.299 5067.373 -389.062 4790.884 C -150.851 4544.341 132.401 4404.599 473.704 4367.668 C 666.875 4346.706 983.156 4383.638 1155.309 4448.518 C 1217.364 4471.475 1375.504 4550.33 1404.53 4573.287 C 1423.547 4588.259 1420.544 4595.246 1304.441 4828.814 L 1184.334 5068.371 L 1151.305 5043.417 C 1108.267 5012.474 977.15 4960.57 881.065 4936.615 C 772.969 4910.663 548.77 4915.653 429.665 4946.596 C 219.478 5001.495 57.334 5126.264 -46.758 5311.92 C -117.821 5438.685 -146.847 5618.353 -122.826 5772.068 C -72.781 6094.472 208.468 6343.012 563.784 6380.941 C 647.858 6389.925 756.955 6389.925 821.012 6380.941 C 908.089 6368.964 1148.302 6280.128 1165.317 6254.176 C 1168.32 6249.185 1174.325 6245.193 1180.331 6245.193 C 1189.339 6245.193 1419.543 6695.359 1419.543 6713.326 C 1419.543 6718.317 1390.517 6741.275 1354.485 6764.232 C 1139.294 6903.973 711.915 6976.839 397.636 6927.929 Z" style="fill: rgb(30, 33, 44);"/>
    <path d="M 6654.188 5656.283 L 6654.188 4418.573 L 7359.815 4418.573 L 8065.441 4418.573 L 8065.441 4656.134 L 8065.441 4892.696 L 7638.062 4892.696 L 7209.681 4892.696 L 7206.679 5155.21 L 7204.677 5416.726 L 7617.043 5416.726 L 8030.41 5416.726 L 8030.41 5656.283 L 8030.41 5895.839 L 7618.044 5895.839 L 7204.677 5895.839 L 7204.677 6155.359 L 7204.677 6414.879 L 7635.059 6414.879 L 8065.441 6414.879 L 8065.441 6654.435 L 8065.441 6893.992 L 7359.815 6893.992 L 6654.188 6893.992 L 6654.188 5656.283 Z" style="fill: rgb(255, 90, 41);"/>
    <path d="M 2381.397 5979.684 C 2290.316 5955.728 2210.245 5905.821 2121.166 5818.982 C 2075.125 5773.066 2035.089 5736.135 2033.087 5736.135 C 2032.087 5736.135 2030.085 5786.042 2030.085 5845.932 L 2030.085 5955.728 L 1764.849 5955.728 L 1499.614 5955.728 L 1499.614 5182.16 L 1499.614 4408.592 L 1764.849 4408.592 L 2029.084 4408.592 L 2032.087 4845.783 C 2035.089 5278.981 2035.089 5281.975 2059.111 5338.87 C 2092.14 5418.722 2140.183 5470.626 2213.247 5505.562 C 2269.297 5532.512 2285.311 5535.506 2365.382 5534.508 C 2458.465 5533.51 2545.542 5513.547 2593.585 5482.604 C 2607.597 5472.623 2624.612 5466.634 2629.617 5468.63 C 2639.626 5471.624 2850.813 5889.85 2850.813 5904.823 C 2850.813 5916.8 2744.719 5962.715 2675.658 5980.682 C 2601.592 5999.647 2453.461 5999.647 2381.397 5979.684 Z" style="fill: rgb(30, 33, 44);"/>
    <path d="M 3341.248 5979.684 C 3305.216 5972.697 3233.152 5945.747 3181.106 5919.795 C 3100.034 5879.869 3073.01 5859.906 2995.942 5782.05 C 2833.798 5617.355 2764.737 5458.648 2753.727 5225.081 C 2741.716 4982.53 2803.771 4795.875 2952.904 4616.208 C 3094.029 4447.52 3332.24 4347.705 3561.444 4362.677 C 3613.49 4365.671 3681.55 4375.653 3711.577 4383.638 C 3795.652 4405.597 3904.748 4464.488 3970.807 4524.378 C 4002.836 4554.322 4032.862 4578.278 4035.865 4578.278 C 4038.868 4578.278 4041.87 4540.348 4041.87 4493.435 L 4041.87 4408.592 L 4302.101 4410.588 L 4562.332 4413.583 L 4562.332 5182.16 L 4562.332 5950.738 L 4302.101 5953.732 L 4041.87 5955.728 L 4041.87 5885.858 C 4041.87 5844.933 4037.867 5815.987 4031.861 5815.987 C 4025.856 5815.987 3997.831 5833.954 3969.806 5856.911 C 3847.698 5952.734 3707.573 5995.655 3521.408 5994.656 C 3458.352 5994.656 3377.28 5987.669 3341.248 5979.684 Z M 3849.7 5506.56 C 3975.812 5439.684 4042.871 5328.889 4044.873 5187.151 C 4046.875 5048.408 3989.824 4936.615 3883.73 4869.738 C 3815.669 4826.818 3767.627 4813.842 3676.546 4814.84 C 3526.413 4816.836 3421.319 4879.72 3359.264 5005.487 C 3331.24 5061.384 3325.234 5085.339 3322.232 5155.21 C 3316.226 5306.929 3358.264 5398.759 3473.366 5483.602 C 3534.42 5527.521 3595.474 5543.491 3701.568 5541.495 C 3777.636 5540.497 3793.65 5536.504 3849.7 5506.56 Z" style="fill: rgb(30, 33, 44);"/>
    <path d="M 5613.265 5972.697 C 5532.193 5945.747 5470.138 5909.813 5393.069 5845.932 C 5361.041 5817.983 5332.015 5796.024 5329.012 5796.024 C 5326.01 5796.024 5323.007 5830.959 5321.005 5873.88 L 5318.003 5950.738 L 5055.77 5953.732 L 4792.536 5955.728 L 4792.536 5182.16 L 4792.536 4408.592 L 5057.772 4408.592 L 5323.007 4408.592 L 5323.007 4875.727 L 5323.007 5341.865 L 5347.028 5391.772 C 5373.052 5445.672 5444.115 5519.536 5507.171 5556.467 C 5537.197 5574.434 5565.222 5581.421 5627.277 5584.416 C 5700.342 5587.41 5713.354 5585.414 5763.398 5559.462 C 5826.454 5526.523 5872.495 5471.624 5902.521 5391.772 C 5922.539 5337.872 5923.54 5317.909 5923.54 4872.733 L 5923.54 4408.592 L 6193.78 4408.592 L 6464.02 4408.592 L 6464.02 4900.681 C 6464.02 5197.132 6460.016 5427.706 6453.01 5481.606 C 6424.985 5713.177 6318.891 5848.926 6098.695 5936.764 C 5939.554 5999.647 5737.375 6015.618 5613.265 5972.697 Z" style="fill: rgb(30, 33, 44);"/>
    <path d="M 8221.579 5908.815 C 8259.613 5857.909 8594.911 5423.713 8678.985 5314.914 C 8716.018 5268.001 8746.045 5222.086 8746.045 5214.101 C 8746.045 5205.118 8711.014 5156.208 8667.976 5105.302 C 8625.938 5054.397 8489.817 4888.703 8366.708 4737.982 C 8243.599 4587.261 8133.501 4453.509 8122.491 4440.533 L 8102.474 4418.573 L 8411.748 4418.573 L 8721.023 4419.572 L 8791.085 4510.403 C 8963.238 4735.986 9058.322 4848.777 9071.334 4845.783 C 9078.34 4843.786 9152.405 4754.951 9235.479 4648.148 C 9317.552 4541.346 9393.62 4445.524 9402.628 4436.54 C 9418.642 4420.57 9447.667 4418.573 9723.913 4418.573 C 9933.098 4418.573 10026.181 4421.568 10022.177 4428.555 C 10018.174 4434.544 9961.123 4505.413 9894.064 4586.263 C 9580.786 4965.561 9391.618 5199.129 9388.615 5211.107 C 9386.613 5222.086 9858.032 5844.933 9918.085 5911.81 C 9929.095 5922.789 9937.102 5934.767 9937.102 5938.76 C 9937.102 5942.752 9802.983 5945.747 9639.838 5944.749 L 9341.573 5944.749 L 9213.46 5770.072 C 9136.391 5666.264 9077.339 5596.393 9067.33 5596.393 C 9058.322 5596.393 8996.267 5668.26 8918.198 5771.07 L 8785.079 5945.747 L 8488.817 5945.747 L 8193.555 5945.747 L 8221.579 5908.815 Z" style="fill: rgb(255, 90, 41);"/>
  </g>
</svg>