<?xml version="1.0" encoding="utf-8"?>
<svg viewBox="0 0 1080 261" width="145"  xmlns="http://www.w3.org/2000/svg">
  <g transform="matrix(0.10000000149011612, 0, 0, -0.10000000149011612, 75.42239379882807, 695.9147338867188)" fill="#000000" stroke="none">
    <path d="M 406.177 6927.9 C 210.177 6897.9 -43.823 6789.9 -207.823 6666.9 C -511.823 6439.9 -696.823 6117.9 -732.823 5755.9 C -768.823 5398.9 -646.823 5063.9 -379.823 4786.9 C -141.823 4539.9 141.177 4399.9 482.177 4362.9 C 675.177 4341.9 991.177 4378.9 1163.177 4443.9 C 1225.177 4466.9 1383.177 4545.9 1412.177 4568.9 C 1431.177 4583.9 1428.177 4590.9 1312.177 4824.9 L 1192.177 5064.9 L 1159.177 5039.9 C 1116.177 5008.9 985.177 4956.9 889.177 4932.9 C 781.177 4906.9 557.177 4911.9 438.177 4942.9 C 228.177 4997.9 66.177 5122.9 -37.823 5308.9 C -108.823 5435.9 -137.823 5615.9 -113.823 5769.9 C -63.823 6092.9 217.177 6341.9 572.177 6379.9 C 656.177 6388.9 765.177 6388.9 829.177 6379.9 C 916.177 6367.9 1156.177 6278.9 1173.177 6252.9 C 1176.177 6247.9 1182.177 6243.9 1188.177 6243.9 C 1197.177 6243.9 1427.177 6694.9 1427.177 6712.9 C 1427.177 6717.9 1398.177 6740.9 1362.177 6763.9 C 1147.177 6903.9 720.177 6976.9 406.177 6927.9 Z" style="fill: rgb(255, 255, 255);"/>
    <path d="M 6657.177 5653.9 L 6657.177 4413.9 L 7362.177 4413.9 L 8067.177 4413.9 L 8067.177 4651.9 L 8067.177 4888.9 L 7640.177 4888.9 L 7212.177 4888.9 L 7209.177 5151.9 L 7207.177 5413.9 L 7619.177 5413.9 L 8032.177 5413.9 L 8032.177 5653.9 L 8032.177 5893.9 L 7620.177 5893.9 L 7207.177 5893.9 L 7207.177 6153.9 L 7207.177 6413.9 L 7637.177 6413.9 L 8067.177 6413.9 L 8067.177 6653.9 L 8067.177 6893.9 L 7362.177 6893.9 L 6657.177 6893.9 L 6657.177 5653.9 Z" style="fill: rgb(255, 90, 41);"/>
    <path d="M 2388.177 5977.9 C 2297.177 5953.9 2217.177 5903.9 2128.177 5816.9 C 2082.177 5770.9 2042.177 5733.9 2040.177 5733.9 C 2039.177 5733.9 2037.177 5783.9 2037.177 5843.9 L 2037.177 5953.9 L 1772.177 5953.9 L 1507.177 5953.9 L 1507.177 5178.9 L 1507.177 4403.9 L 1772.177 4403.9 L 2036.177 4403.9 L 2039.177 4841.9 C 2042.177 5275.9 2042.177 5278.9 2066.177 5335.9 C 2099.177 5415.9 2147.177 5467.9 2220.177 5502.9 C 2276.177 5529.9 2292.177 5532.9 2372.177 5531.9 C 2465.177 5530.9 2552.177 5510.9 2600.177 5479.9 C 2614.177 5469.9 2631.177 5463.9 2636.177 5465.9 C 2646.177 5468.9 2857.177 5887.9 2857.177 5902.9 C 2857.177 5914.9 2751.177 5960.9 2682.177 5978.9 C 2608.177 5997.9 2460.177 5997.9 2388.177 5977.9 Z" style="fill: rgb(255, 255, 255);"/>
    <path d="M 3347.177 5977.9 C 3311.177 5970.9 3239.177 5943.9 3187.177 5917.9 C 3106.177 5877.9 3079.177 5857.9 3002.177 5779.9 C 2840.177 5614.9 2771.177 5455.9 2760.177 5221.9 C 2748.177 4978.9 2810.177 4791.9 2959.177 4611.9 C 3100.177 4442.9 3338.177 4342.9 3567.177 4357.9 C 3619.177 4360.9 3687.177 4370.9 3717.177 4378.9 C 3801.177 4400.9 3910.177 4459.9 3976.177 4519.9 C 4008.177 4549.9 4038.177 4573.9 4041.177 4573.9 C 4044.177 4573.9 4047.177 4535.9 4047.177 4488.9 L 4047.177 4403.9 L 4307.177 4405.9 L 4567.177 4408.9 L 4567.177 5178.9 L 4567.177 5948.9 L 4307.177 5951.9 L 4047.177 5953.9 L 4047.177 5883.9 C 4047.177 5842.9 4043.177 5813.9 4037.177 5813.9 C 4031.177 5813.9 4003.177 5831.9 3975.177 5854.9 C 3853.177 5950.9 3713.177 5993.9 3527.177 5992.9 C 3464.177 5992.9 3383.177 5985.9 3347.177 5977.9 Z M 3855.177 5503.9 C 3981.177 5436.9 4048.177 5325.9 4050.177 5183.9 C 4052.177 5044.9 3995.177 4932.9 3889.177 4865.9 C 3821.177 4822.9 3773.177 4809.9 3682.177 4810.9 C 3532.177 4812.9 3427.177 4875.9 3365.177 5001.9 C 3337.177 5057.9 3331.177 5081.9 3328.177 5151.9 C 3322.177 5303.9 3364.177 5395.9 3479.177 5480.9 C 3540.177 5524.9 3601.177 5540.9 3707.177 5538.9 C 3783.177 5537.9 3799.177 5533.9 3855.177 5503.9 Z" style="fill: rgb(255, 255, 255);"/>
    <path d="M 5617.177 5970.9 C 5536.177 5943.9 5474.177 5907.9 5397.177 5843.9 C 5365.177 5815.9 5336.177 5793.9 5333.177 5793.9 C 5330.177 5793.9 5327.177 5828.9 5325.177 5871.9 L 5322.177 5948.9 L 5060.177 5951.9 L 4797.177 5953.9 L 4797.177 5178.9 L 4797.177 4403.9 L 5062.177 4403.9 L 5327.177 4403.9 L 5327.177 4871.9 L 5327.177 5338.9 L 5351.177 5388.9 C 5377.177 5442.9 5448.177 5516.9 5511.177 5553.9 C 5541.177 5571.9 5569.177 5578.9 5631.177 5581.9 C 5704.177 5584.9 5717.177 5582.9 5767.177 5556.9 C 5830.177 5523.9 5876.177 5468.9 5906.177 5388.9 C 5926.177 5334.9 5927.177 5314.9 5927.177 4868.9 L 5927.177 4403.9 L 6197.177 4403.9 L 6467.177 4403.9 L 6467.177 4896.9 C 6467.177 5193.9 6463.177 5424.9 6456.177 5478.9 C 6428.177 5710.9 6322.177 5846.9 6102.177 5934.9 C 5943.177 5997.9 5741.177 6013.9 5617.177 5970.9 Z" style="fill: rgb(255, 255, 255);"/>
    <path d="M 8223.177 5906.9 C 8261.177 5855.9 8596.177 5420.9 8680.177 5311.9 C 8717.177 5264.9 8747.177 5218.9 8747.177 5210.9 C 8747.177 5201.9 8712.177 5152.9 8669.177 5101.9 C 8627.177 5050.9 8491.177 4884.9 8368.177 4733.9 C 8245.177 4582.9 8135.177 4448.9 8124.177 4435.9 L 8104.177 4413.9 L 8413.177 4413.9 L 8722.177 4414.9 L 8792.177 4505.9 C 8964.177 4731.9 9059.177 4844.9 9072.177 4841.9 C 9079.177 4839.9 9153.177 4750.9 9236.177 4643.9 C 9318.177 4536.9 9394.177 4440.9 9403.177 4431.9 C 9419.177 4415.9 9448.177 4413.9 9724.177 4413.9 C 9933.177 4413.9 10026.177 4416.9 10022.177 4423.9 C 10018.177 4429.9 9961.177 4500.9 9894.177 4581.9 C 9581.177 4961.9 9392.177 5195.9 9389.177 5207.9 C 9387.177 5218.9 9858.177 5842.9 9918.177 5909.9 C 9929.177 5920.9 9937.177 5932.9 9937.177 5936.9 C 9937.177 5940.9 9803.177 5943.9 9640.177 5942.9 L 9342.177 5942.9 L 9214.177 5767.9 C 9137.177 5663.9 9078.177 5593.9 9068.177 5593.9 C 9059.177 5593.9 8997.177 5665.9 8919.177 5768.9 L 8786.177 5943.9 L 8490.177 5943.9 L 8195.177 5943.9 L 8223.177 5906.9 Z" style="fill: rgb(255, 90, 41);"/>
  </g>
</svg>